# xmcd
#
# Track frame offsets:
#	183
#	11113
#	24130
#	37953
#	52755
#	67048
#	80593
#	98998
#	109860
#	123598
#	138258
#	152695
#	167145
#	182208
#	195983
#
# Disc length: 2832 seconds
#
# Revision: 1
# Processed by: cddbd v1.5.1PL0 Copyright (c) Steve Scherf et al.
# Submitted via: audiograbber 1.83.01
#
DISCID=be0b0e0f
DTITLE=Il dizionario della musica italiana - I valzer
DYEAR=1900
DGENRE=
TTITLE0=Gigi Beccaria - Il valzer del boogie-woogie
TTITLE1=Natalino Otto - Il valzer del bicchierino
TTITLE2=Ernesto Bonino - Silvana Fioresi - Bionda mia bella bionda
TTITLE3=Ernesto Bonino - Silvana Fioresi - Il valzer di ogni bambina
TTITLE4=Piero Pavesio - Il valzer dell'organino
TTITLE5=Carlo Buti - La romanina
TTITLE6=Johnny Dorelli - Lettera a Pinocchio
TTITLE7=Lidia Martorana - Amore baciami
TTITLE8=Ernesto Bonino - Silvana Fioresi - Piemontesina
TTITLE9=Trio Lescano - Colei che debbo amare
TTITLE10=Antonio Basurto - Sempre
TTITLE11=Oscar Carboni - Firenze sogna
TTITLE12=Romano Bondesan - Marisa
TTITLE13=Tati Casoni - Valzer delle candele
TTITLE14=Wanda Osiris - Vecchia canzone
EXTD=
EXTT0=
EXTT1=
EXTT2=
EXTT3=
EXTT4=
EXTT5=
EXTT6=
EXTT7=
EXTT8=
EXTT9=
EXTT10=
EXTT11=
EXTT12=
EXTT13=
EXTT14=
PLAYORDER=
